<?xml version="1.0" encoding="utf-8"?>
<!-- Generator: Adobe Illustrator 23.0.4, SVG Export Plug-In . SVG Version: 6.00 Build 0)  -->
<svg version="1.1" id="Capa_1" xmlns="http://www.w3.org/2000/svg" xmlns:xlink="http://www.w3.org/1999/xlink" x="0px" y="0px"
	 viewBox="0 0 76.8 76.8" style="enable-background:new 0 0 76.8 76.8;" xml:space="preserve">
<style type="text/css">
	.st0{fill:#FFFFFF;}
</style>
<rect width="76.8" height="76.8"/>
<path class="st0" d="M23.4,18.7c4.9,1.1,9.8,1.7,14.8,1.7s10-0.6,14.8-1.7c0.5-0.1,0.8-0.6,0.8-1.1c-0.7-6.8-5.5-12.3-11.5-14.1V2.3
	c0-0.5-0.4-1-1-1c-0.5,0-1,0.4-1,1v0.8C39.7,3,39,2.9,38.3,2.9c-0.7,0-1.4,0.1-2.1,0.2V2.3c0-0.5-0.4-1-1-1c-0.5,0-1,0.4-1,1v1.2
	c-6.1,1.8-10.8,7.3-11.5,14.1C22.6,18.1,23,18.6,23.4,18.7z M34.2,5.6v3.1c0,0.5,0.4,1,1,1c0.5,0,1-0.4,1-1V5.1
	c0.7-0.1,1.4-0.2,2.1-0.2c0.7,0,1.4,0.1,2.1,0.2v3.6c0,0.5,0.4,1,1,1c0.5,0,1-0.4,1-1V5.6c4.8,1.6,8.6,6,9.5,11.4
	c-8.9,1.9-18.1,1.9-27.1,0C25.6,11.6,29.4,7.2,34.2,5.6z M44.3,15.9c-2,0.4-4,0.7-6,0.7c-2,0-4.1-0.2-6-0.7
	c-0.5-0.1-0.9-0.6-0.7-1.2c0.1-0.5,0.6-0.9,1.2-0.7c3.7,0.8,7.5,0.8,11.2,0c0.5-0.1,1,0.2,1.2,0.7C45.1,15.2,44.8,15.8,44.3,15.9z
	 M22,23.2c0-0.6,0.1-2.6,1.5-3.1c1.4-0.5,2.8,0.9,3,1.2c0.4,0.4,0.3,1,0,1.4c-0.4,0.4-1,0.4-1.4,0c-0.3-0.3-0.7-0.6-0.9-0.6
	C24.1,22,24,22.4,24,23.2c-0.1,3.4,2.5,4.4,2.5,4.4c0.3,0.1,0.5,0.4,0.6,0.7l0,0.2c0,0.1,0,0.1,0,0.2c0.7,9,7.8,11.9,11,11.9
	c3.3,0,10.3-2.9,11-11.9c0-0.1,0-0.1,0-0.2l0-0.2c0.1-0.3,0.3-0.6,0.6-0.7c0.1,0,2.6-1,2.5-4.4c0-0.8-0.2-1.2-0.2-1.3
	c-0.2,0.1-0.6,0.4-0.9,0.6c-0.4,0.4-1,0.4-1.4,0c-0.4-0.4-0.4-1,0-1.4c0.3-0.3,1.7-1.7,3-1.2c1.4,0.5,1.4,2.5,1.5,3.1
	c0.1,3.4-1.9,5.3-3.3,6c-1,9.2-8.1,13.3-12.9,13.3c-4.8,0-12-4.1-12.9-13.3C23.9,28.5,21.9,26.6,22,23.2z M39.8,23
	c-0.3,0-0.6,0.1-0.7,0.3c0,0.1-0.1,0.1-0.1,0.2h-1.3c0-0.1-0.1-0.1-0.1-0.2c-0.2-0.2-0.5-0.3-0.7-0.3h-7.7c-0.3,0-0.5,0.1-0.7,0.3
	c-0.2,0.2-0.3,0.4-0.3,0.7c0,0.9,0.2,4,1.5,5.1c0.9,0.7,2.2,1.1,3.5,1.1c1.2,0,2.3-0.4,2.9-1.1c0.7-0.8,1.2-2.4,1.4-3.6H39
	c0.3,1.2,0.7,2.9,1.4,3.6c0.6,0.7,1.7,1.1,2.9,1.1c1.3,0,2.6-0.4,3.5-1.1c1.3-1.1,1.5-4.2,1.5-5.1c0-0.3-0.1-0.5-0.3-0.7
	c-0.2-0.2-0.4-0.3-0.7-0.3H39.8z M34.6,27.8c-0.3,0.3-0.8,0.5-1.5,0.5c-0.8,0-1.7-0.3-2.3-0.7c-0.3-0.3-0.6-1.4-0.7-2.6h5.5
	C35.3,26.1,35,27.4,34.6,27.8z M45.7,27.6c-0.5,0.4-1.4,0.7-2.3,0.7c-0.7,0-1.2-0.2-1.5-0.5c-0.4-0.4-0.7-1.7-1-2.8h5.5
	C46.3,26.1,46,27.3,45.7,27.6z M69.9,42.8c-9.7,3.2-19.8,4.9-30,5.1v23.8c0,0.5-0.4,1-1,1c-0.5,0-1-0.4-1-1V51.5
	c-7.4,0-14.8-0.9-22-2.5c-0.1,0-0.2,0-0.2-0.1c-3.1-0.7-6.1-1.5-9.1-2.5l0.5,7.6c0,0.5-0.4,1-0.9,1.1c0,0,0,0-0.1,0
	c-0.5,0-0.9-0.4-1-0.9l-0.7-9.1c0-0.3,0.1-0.7,0.4-0.9C5.2,44,5.6,44,5.9,44.1c3.2,1.1,6.5,2,9.8,2.8c2.1-3.3,5.4-5.9,10-7.6l-0.1-1
	c0-0.5,0.4-1,0.9-1c0.5,0,1,0.4,1,0.9l0.3,4.3l2.9-1.1c0.5-0.2,1.1,0.1,1.2,0.6c0.2,0.5-0.1,1.1-0.6,1.3l-4.1,1.5
	c-0.1,0-0.2,0.1-0.3,0.1c-0.2,0-0.4-0.1-0.5-0.2c-0.3-0.2-0.4-0.5-0.4-0.8l-0.1-2.5c-3.7,1.4-6.4,3.4-8.1,6
	c6.7,1.4,13.5,2.2,20.3,2.2V47c0-0.5,0.4-1,1-1c5.8,0,11.5-0.6,17.1-1.6c-1.4-1.2-3.2-2.2-5.2-3l-0.1,2.5c0,0.3-0.2,0.6-0.4,0.8
	c-0.2,0.1-0.3,0.2-0.5,0.2c-0.1,0-0.2,0-0.3-0.1l-4.1-1.5c-0.5-0.2-0.8-0.8-0.6-1.3c0.2-0.5,0.7-0.8,1.2-0.6l2.9,1.1l0.3-4.3
	c0-0.5,0.5-1,1-0.9c0.5,0,0.9,0.5,0.9,1l-0.1,1c3,1.1,5.6,2.7,7.5,4.5c4.1-0.9,8.2-2,12.2-3.4c0.3-0.1,0.6-0.1,0.9,0.1
	c0.3,0.2,0.4,0.5,0.4,0.8l-0.6,13.3c0,0.5-0.5,1-1,0.9c-0.5,0-1-0.5-0.9-1L69.9,42.8z M74.6,58.2c-0.9-0.9-2.2-1.3-4.2-1.3
	c-1.9,0-3.3,0.4-4.2,1.3c-1.2,1.2-1.2,2.9-1.1,4.3l0,6.9c0,3,2.4,5.4,5.3,5.4c2.9,0,5.3-2.4,5.3-5.4l0-6.9
	C75.8,61,75.8,59.4,74.6,58.2z M73.8,62.5l0,6.9c0,1.9-1.5,3.4-3.4,3.4c-1.4,0-2.5-0.8-3.1-2h2c0.5,0,1-0.4,1-1c0-0.5-0.4-1-1-1
	h-2.3v-1.7h2.3c0.5,0,1-0.4,1-1c0-0.5-0.4-1-1-1h-2.3v-1.8h2.3c0.5,0,1-0.4,1-1c0-0.5-0.4-1-1-1h-2.3c0-0.7,0.2-1.4,0.6-1.8
	c0.5-0.5,1.4-0.7,2.8-0.7c1.4,0,2.3,0.2,2.8,0.7C73.8,60.2,73.8,61.3,73.8,62.5z M6.7,56.2c-2.1,0-3.5,0.5-4.4,1.4
	C1,58.9,1,60.7,1,62.2l0,7.4c0,3.2,2.5,5.7,5.7,5.7s5.7-2.6,5.7-5.7l0-7.4c0-1.6,0-3.4-1.2-4.6C10.2,56.7,8.7,56.2,6.7,56.2z
	 M6.7,73.4c-2,0-3.7-1.7-3.7-3.8l0-7.4c0-1.3,0-2.5,0.6-3.2c0.5-0.5,1.6-0.8,3.1-0.8s2.5,0.3,3.1,0.8c0.5,0.5,0.6,1.2,0.6,2.1H7.8
	c-0.5,0-1,0.4-1,1c0,0.5,0.4,1,1,1h2.5v2.1H7.8c-0.5,0-1,0.4-1,1s0.4,1,1,1h2.5v2H7.8c-0.5,0-1,0.4-1,1s0.4,1,1,1h2.3
	C9.5,72.5,8.2,73.4,6.7,73.4z"/>
</svg>
