<svg xmlns="http://www.w3.org/2000/svg" viewBox="0 0 415.6 122.8"><defs><style>.cls-1{isolation:isolate;}.cls-2{fill:#3067a9;}</style></defs><title>Asset 4</title><g id="Layer_2" data-name="Layer 2"><g id="Layer_1-2" data-name="Layer 1"><g class="cls-1"><path class="cls-2" d="M44.2,60.5A16,16,0,0,1,42.5,68a14.61,14.61,0,0,1-4.7,5.2,19.55,19.55,0,0,1-7.2,3,37.06,37.06,0,0,1-9,1H1.5V18.5h18a49.38,49.38,0,0,1,9.4.7,18.22,18.22,0,0,1,6.4,2.5A13,13,0,0,1,40,26.3a12.42,12.42,0,0,1,1.6,6.6,11.67,11.67,0,0,1-2.8,8,15.09,15.09,0,0,1-8.1,4.7A19.73,19.73,0,0,1,37.3,48a16.28,16.28,0,0,1,4.1,3.6,15.93,15.93,0,0,1,2.2,4.3A18.76,18.76,0,0,1,44.2,60.5Zm-10.8.3a17.25,17.25,0,0,0-1.1-6A7.42,7.42,0,0,0,28,50.6a9.31,9.31,0,0,0-3.1-.6l-4.3-.3q-2.4-.15-3.9-.3a3.4,3.4,0,0,1-2.1-.9,3.1,3.1,0,0,1-.9-1.9,28.69,28.69,0,0,1-.2-3.5,19.31,19.31,0,0,0,7,1.1,14.11,14.11,0,0,0,4.9-.7,9.88,9.88,0,0,0,3.5-2.2,7.16,7.16,0,0,0,2-3.6,18.92,18.92,0,0,0,.5-3.8,10.38,10.38,0,0,0-.3-2.3,12.54,12.54,0,0,0-.9-2.5,7.23,7.23,0,0,0-1.7-2.2,9.34,9.34,0,0,0-2.6-1.5,9.92,9.92,0,0,0-2.6-.6,35.29,35.29,0,0,0-3.6-.2H11.1V70.8H21.8A16.23,16.23,0,0,0,27,70a12.85,12.85,0,0,0,3.6-2.2,9.71,9.71,0,0,0,2.8-7Z"/><path class="cls-2" d="M104,47.9a44.54,44.54,0,0,1-1.6,12.5,25.8,25.8,0,0,1-4.8,9.5A22.69,22.69,0,0,1,89.7,76a26.81,26.81,0,0,1-11.1,2.1A27.26,27.26,0,0,1,67,75.8a21.51,21.51,0,0,1-8.2-6.4,26.89,26.89,0,0,1-4.9-9.7,43.37,43.37,0,0,1-1.6-12.2,41.44,41.44,0,0,1,1.8-12.7,26,26,0,0,1,5.2-9.4,21.53,21.53,0,0,1,8.1-5.8,28.47,28.47,0,0,1,10.8-2,27.43,27.43,0,0,1,11.5,2.3,22.92,22.92,0,0,1,8,6.4,26.92,26.92,0,0,1,4.7,9.6A42,42,0,0,1,104,47.9ZM78.1,23.7a14.2,14.2,0,0,0-7.2,1.7,11.84,11.84,0,0,0-4.6,4.8,25.42,25.42,0,0,0-2.5,7.5,58,58,0,0,0-.8,9.8,51.3,51.3,0,0,0,.8,10,24.66,24.66,0,0,0,2.5,7.8,13.31,13.31,0,0,0,4.7,5A14,14,0,0,0,78.4,72c5.5,0,9.3-2,11.4-6.1S93,55.8,93,47.9a77.3,77.3,0,0,0-.6-10.1,25.29,25.29,0,0,0-2.2-7.6,11.62,11.62,0,0,0-4.5-4.8A16.1,16.1,0,0,0,78.1,23.7Z"/><path class="cls-2" d="M155.8,74.6a15.77,15.77,0,0,1-4.4,2,26,26,0,0,1-5,1,54.66,54.66,0,0,1-6,.3,30.22,30.22,0,0,1-11.2-2,22.62,22.62,0,0,1-8.4-5.8,24.74,24.74,0,0,1-5.2-9.3,39.27,39.27,0,0,1-1.8-12.3,40.82,40.82,0,0,1,1.9-13,27.48,27.48,0,0,1,5.5-9.8,23.38,23.38,0,0,1,8.5-6.1,27.54,27.54,0,0,1,10.9-2.2c1.7,0,3.2,0,4.4.1a17.36,17.36,0,0,1,3.4.5,13.16,13.16,0,0,1,3,.9c1,.4,2.1.8,3.3,1.4a4.6,4.6,0,0,1,2,1.6,5.39,5.39,0,0,1,.9,2.2,12,12,0,0,1,.3,2.8v3.3a14.71,14.71,0,0,0-3.5-3.1,23.65,23.65,0,0,0-8.9-3.1,35.17,35.17,0,0,0-4.5-.3,15.29,15.29,0,0,0-8,1.9,15.52,15.52,0,0,0-5.2,5.3,22.46,22.46,0,0,0-2.7,7.8,56.73,56.73,0,0,0-.8,9.4c0,8,1.4,13.9,4.3,17.8s7,5.8,12.5,5.8a16.84,16.84,0,0,0,5.5-.8,8.2,8.2,0,0,0,3.8-3V49.5h-6.9a8.81,8.81,0,0,1-1.7-.2,1.78,1.78,0,0,1-1.1-.8,4,4,0,0,1-.5-1.9,13.62,13.62,0,0,1,.2-3.3h19.4V71.2A18.08,18.08,0,0,1,155.8,74.6Z"/><path class="cls-2" d="M207,77.2a20.29,20.29,0,0,1-4-.3,3.74,3.74,0,0,1-1.9-.9,8.47,8.47,0,0,1-1-1.7L180.6,34.2a29.67,29.67,0,0,1-1.4-3.3c-.5-1.4-1-2.9-1.5-4.3a53.21,53.21,0,0,1,.6,5.6c.1,1.9.1,3.5.1,5V77h-8V18.5c3.3-.1,5.8-.2,7.6-.1a21.45,21.45,0,0,1,4.1.3,2.61,2.61,0,0,1,1.8,1c.3.5.6,1,1,1.7l18.8,39.2c.3.6.7,1.7,1.3,3.3a33.55,33.55,0,0,1,1.5,5.3c-.2-2-.4-3.8-.4-5.6V18.5h8.2V77.1C211.1,77.2,208.7,77.2,207,77.2Z"/><path class="cls-2" d="M267,77.1a9.15,9.15,0,0,1-3.4-.7,3.15,3.15,0,0,1-1.7-1.7,16.31,16.31,0,0,1-1.1-2.8l-3.4-10.2H234.5L231,72.4c-.4,1.1-.8,2-1.1,2.7a2.94,2.94,0,0,1-1.4,1.5,8.4,8.4,0,0,1-2.8.6,45,45,0,0,1-5-.1l20.8-58.7c2.8-.1,5-.2,6.6-.1a14,14,0,0,1,3.5.4c.8.3,1.3.6,1.5,1.1a10.52,10.52,0,0,1,.8,1.8l19.3,55.6C270.6,77.2,268.5,77.2,267,77.1ZM258.4,7l-15.8,5.8c-.5.2-1.1.4-1.7.6a6.69,6.69,0,0,1-1.9.5,4,4,0,0,1-1.9-.2,2.89,2.89,0,0,1-1.5-1.2L254,0ZM248,30c-.2-.8-.5-1.7-.8-2.8s-.5-2.1-.7-3a16.66,16.66,0,0,1-.8,3c-.3,1.1-.6,2-.8,2.8l-8.3,24.9h18.8Z"/><path class="cls-2" d="M329.2,77a9.94,9.94,0,0,1-3.4.8c-1.2.1-2.4.1-3.5.1s-2.1-.2-3-.3a9.84,9.84,0,0,1-2-.6,12.79,12.79,0,0,1-3.2-2.3,25.6,25.6,0,0,1-3.1-3.4,32.82,32.82,0,0,1-2.7-3.8c-.9-1.3-1.6-2.5-2.2-3.5s-1.3-2.1-2.3-3.6-2.1-3.1-3.3-4.7l-3.6-4.8c-1.2-1.6-2.4-2.9-3.4-4a19.17,19.17,0,0,0,3.6.6,17.07,17.07,0,0,0,3.2,0,10.51,10.51,0,0,0,7.3-3.4c1.8-2,2.6-5,2.6-8.9a18.59,18.59,0,0,0-.5-4.2,7.75,7.75,0,0,0-1.9-3.3,9.09,9.09,0,0,0-3.9-2.2,21.47,21.47,0,0,0-6.3-.8h-5.8V77.1H282V18.5h18.4a29.49,29.49,0,0,1,8.9,1.2,16.22,16.22,0,0,1,6.2,3.5,15,15,0,0,1,3.7,5.3,18.15,18.15,0,0,1,1.2,6.7,16.09,16.09,0,0,1-.8,4.8,17.8,17.8,0,0,1-2.1,4.4,16.07,16.07,0,0,1-3.3,3.6,17.55,17.55,0,0,1-4.2,2.4c-.5.2-1,.3-1.5.5a5.15,5.15,0,0,1-1.8.1,19.93,19.93,0,0,1,3.2,3.3c.9,1.2,1.8,2.3,2.6,3.3,1.1,1.4,2.1,2.8,3,4s1.8,2.6,2.6,3.9c1,1.7,1.9,3.3,2.8,4.7s1.8,2.7,2.6,3.7a18.4,18.4,0,0,0,2.6,2.4A5.36,5.36,0,0,0,329.2,77Z"/></g><g class="cls-1"><path class="cls-2" d="M5.6,97.8v7.8h8.5v4.1H5.7V122H0V93.4H14.8v4.4Z"/><path class="cls-2" d="M39.8,111.9a14.21,14.21,0,0,1-.6,4.2,10.56,10.56,0,0,1-1.8,3.5,7.55,7.55,0,0,1-3.2,2.3,11.5,11.5,0,0,1-4.8.8,13.37,13.37,0,0,1-4.8-.8,7.55,7.55,0,0,1-3.2-2.3,9.68,9.68,0,0,1-1.8-3.5,14.24,14.24,0,0,1-.5-4.2V93.4h5.6v18a22.75,22.75,0,0,0,.2,2.6,7.11,7.11,0,0,0,.7,2.2,4,4,0,0,0,3.9,2,5.36,5.36,0,0,0,2.4-.5,5.36,5.36,0,0,0,1.5-1.5,4.77,4.77,0,0,0,.7-2.2,22.75,22.75,0,0,0,.2-2.6v-18h5.6v18.5Zm-11.2-24a2.56,2.56,0,0,1-.8,1.9,2.9,2.9,0,0,1-4,0,2.56,2.56,0,0,1-.8-1.9,2.93,2.93,0,0,1,.8-1.9,2.9,2.9,0,0,1,4,0A2.56,2.56,0,0,1,28.6,87.9Zm7.3,0a2.56,2.56,0,0,1-.8,1.9,2.9,2.9,0,0,1-4,0,2.56,2.56,0,0,1-.8-1.9,2.93,2.93,0,0,1,.8-1.9,2.9,2.9,0,0,1,4,0A2.56,2.56,0,0,1,35.9,87.9Z"/><path class="cls-2" d="M59.7,122l-5.1-12.2H51.4V122H46V93.4h9.4a15.18,15.18,0,0,1,3.8.5,7.71,7.71,0,0,1,3,1.5,6.67,6.67,0,0,1,1.9,2.5,8.15,8.15,0,0,1,.7,3.7,8.36,8.36,0,0,1-.5,2.9,7.76,7.76,0,0,1-1.2,2.2,5.52,5.52,0,0,1-1.7,1.4,6.7,6.7,0,0,1-1.8.7L65.5,122Zm-.4-20.2a4.14,4.14,0,0,0-.4-2.1,2.85,2.85,0,0,0-1.1-1.3,5.07,5.07,0,0,0-1.5-.7,8.81,8.81,0,0,0-1.7-.2H51.4v8.8h3.2a5.33,5.33,0,0,0,3.4-1.1A4.11,4.11,0,0,0,59.3,101.8Z"/><path class="cls-2" d="M91.2,107.7q0,6.75-3.3,10.5c-2.2,2.5-5.4,3.7-9.7,3.7H69.9V93.4h8.3c4.2,0,7.5,1.3,9.6,3.8A15.92,15.92,0,0,1,91.2,107.7Zm-5.6,0a18.39,18.39,0,0,0-.5-4.4,9,9,0,0,0-1.5-3.1,6.89,6.89,0,0,0-2.3-1.9,7.17,7.17,0,0,0-2.9-.6H75.7v20.1h2.7a6.84,6.84,0,0,0,2.9-.6,5.25,5.25,0,0,0,2.3-1.9,7.49,7.49,0,0,0,1.5-3.1A19.29,19.29,0,0,0,85.6,107.7Z"/><path class="cls-2" d="M118.9,107.7a23.88,23.88,0,0,1-.8,6.2,12.32,12.32,0,0,1-2.4,4.7,11.51,11.51,0,0,1-13.8,3.1,9.22,9.22,0,0,1-3.7-3.1,16,16,0,0,1-2.4-4.7,23.31,23.31,0,0,1-.8-6.2,22.54,22.54,0,0,1,.8-6.1,13.76,13.76,0,0,1,2.3-4.7,10.15,10.15,0,0,1,3.8-3,11.91,11.91,0,0,1,10,0,11,11,0,0,1,3.8,3,16,16,0,0,1,2.4,4.7A22.54,22.54,0,0,1,118.9,107.7Zm-5.8,0a17.83,17.83,0,0,0-.4-4.1,12.67,12.67,0,0,0-1.2-3.3,6.89,6.89,0,0,0-1.9-2.2,4.7,4.7,0,0,0-2.6-.8,5,5,0,0,0-2.7.8,5.85,5.85,0,0,0-1.9,2.2,9.85,9.85,0,0,0-1.1,3.3,25.9,25.9,0,0,0-.4,4.1,17.83,17.83,0,0,0,.4,4.1,9.85,9.85,0,0,0,1.1,3.3,6.89,6.89,0,0,0,1.9,2.2,5,5,0,0,0,5.4,0,5.85,5.85,0,0,0,1.9-2.2,10.68,10.68,0,0,0,1.1-3.3A18.4,18.4,0,0,0,113.1,107.7Zm-7.7-16.5h-3.8l4.2-5.8h4.7Zm6.7,0h-3.8l4.2-5.8h4.8Z"/><path class="cls-2" d="M137.1,99a5.89,5.89,0,0,0-4.6-1.9,7.72,7.72,0,0,0-1.5.2,3.69,3.69,0,0,0-1.4.7,3.45,3.45,0,0,0-1,1.3,4.78,4.78,0,0,0-.4,1.8,3.29,3.29,0,0,0,1.3,2.8,14.36,14.36,0,0,0,3.3,1.9c.8.4,1.6.8,2.5,1.2a12.42,12.42,0,0,1,2.3,1.7,8.1,8.1,0,0,1,1.7,2.3,7.45,7.45,0,0,1,.7,3.1,8.74,8.74,0,0,1-.8,3.7,7.05,7.05,0,0,1-2.1,2.7,11.09,11.09,0,0,1-3,1.7,11.33,11.33,0,0,1-3.6.6,14.4,14.4,0,0,1-5.1-.9,10.19,10.19,0,0,1-3.7-2.3l3-3.6a8.06,8.06,0,0,0,2.6,1.8,8.15,8.15,0,0,0,3.1.6,4,4,0,0,0,2.9-1,3.7,3.7,0,0,0,1.2-2.9,3.56,3.56,0,0,0-1.4-2.9,16.15,16.15,0,0,0-3.5-2,14.64,14.64,0,0,1-2.5-1.3,16.6,16.6,0,0,1-2.1-1.6,6.36,6.36,0,0,1-1.4-2.2,7,7,0,0,1-.5-3,8.55,8.55,0,0,1,.8-3.8,7.77,7.77,0,0,1,2.1-2.6,9.56,9.56,0,0,1,3-1.6,13.32,13.32,0,0,1,3.4-.5,12.51,12.51,0,0,1,4.5.7,9.33,9.33,0,0,1,3.3,2.1Z"/><path class="cls-2" d="M142.9,122v-4L154,97.7H143.6V93.4h16.5v3.9l-11,20.3h11.1V122Z"/><path class="cls-2" d="M186.8,107.7a23.88,23.88,0,0,1-.8,6.2,12.32,12.32,0,0,1-2.4,4.7,11.51,11.51,0,0,1-13.8,3.1,9.22,9.22,0,0,1-3.7-3.1,16,16,0,0,1-2.4-4.7,23.31,23.31,0,0,1-.8-6.2,22.54,22.54,0,0,1,.8-6.1,13.76,13.76,0,0,1,2.3-4.7,10.15,10.15,0,0,1,3.8-3,11.91,11.91,0,0,1,10,0,11,11,0,0,1,3.8,3,16,16,0,0,1,2.4,4.7A22.54,22.54,0,0,1,186.8,107.7Zm-5.8,0a17.83,17.83,0,0,0-.4-4.1,12.67,12.67,0,0,0-1.2-3.3,6.89,6.89,0,0,0-1.9-2.2,4.7,4.7,0,0,0-2.6-.8,5,5,0,0,0-2.7.8,5.85,5.85,0,0,0-1.9,2.2,9.85,9.85,0,0,0-1.1,3.3,25.9,25.9,0,0,0-.4,4.1,17.83,17.83,0,0,0,.4,4.1,9.85,9.85,0,0,0,1.1,3.3,6.89,6.89,0,0,0,1.9,2.2,5,5,0,0,0,5.4,0,5.85,5.85,0,0,0,1.9-2.2,10.68,10.68,0,0,0,1.1-3.3A18.4,18.4,0,0,0,181,107.7Z"/><path class="cls-2" d="M211.1,114a7.37,7.37,0,0,1-.9,3.8,8.81,8.81,0,0,1-2.2,2.5,10.32,10.32,0,0,1-3,1.4,12.19,12.19,0,0,1-3.2.4H192V93.4h8.8a17.09,17.09,0,0,1,3.1.3,9.77,9.77,0,0,1,3,1.1,6.61,6.61,0,0,1,2.2,2.2,6.4,6.4,0,0,1,.9,3.6,6,6,0,0,1-1.3,4.2,7.48,7.48,0,0,1-3,2.1v.1a7,7,0,0,1,3.7,2.1,7.43,7.43,0,0,1,1.3,2.1A11.08,11.08,0,0,1,211.1,114Zm-6.2-12.6a3.42,3.42,0,0,0-.4-1.8,4,4,0,0,0-1-1.2,5.23,5.23,0,0,0-1.5-.7,9.85,9.85,0,0,0-1.7-.2h-3.1v8h3.2a7.77,7.77,0,0,0,1.6-.2,3.69,3.69,0,0,0,1.4-.7,2.68,2.68,0,0,0,1-1.3A3.2,3.2,0,0,0,204.9,101.4Zm.8,12.2a4.65,4.65,0,0,0-.5-2.1,4.07,4.07,0,0,0-1.2-1.4,4.81,4.81,0,0,0-1.6-.8,5.54,5.54,0,0,0-1.8-.2h-3.4V118h3.5a5.82,5.82,0,0,0,1.9-.3,4.81,4.81,0,0,0,1.6-.8,5.26,5.26,0,0,0,1.1-1.4A3.58,3.58,0,0,0,205.7,113.6Z"/><path class="cls-2" d="M230.6,122l-1.6-6.1h-8.7l-1.7,6.1H213l8.2-28.6h7.1l8.1,28.6Zm-5.9-24h-.2l-3.6,14.2h7.3Z"/><path class="cls-2" d="M264,121.7a11.32,11.32,0,0,1-5.1,1,11.94,11.94,0,0,1-5.1-1.1,11.53,11.53,0,0,1-3.8-3.1,13.91,13.91,0,0,1-2.4-4.7,20.45,20.45,0,0,1,0-12,15.65,15.65,0,0,1,2.5-4.8,10.74,10.74,0,0,1,3.9-3.1,11.81,11.81,0,0,1,5-1.1,12.76,12.76,0,0,1,5,.9,9.19,9.19,0,0,1,3.5,2.6l-3.2,3.4a6.07,6.07,0,0,0-5-2.4,5.47,5.47,0,0,0-2.9.8,8.83,8.83,0,0,0-2.1,2.2,10.84,10.84,0,0,0-1.3,3.3,17.83,17.83,0,0,0-.4,4.1,18.4,18.4,0,0,0,.4,4.1,9.9,9.9,0,0,0,1.3,3.3,7.4,7.4,0,0,0,2.1,2.2,5.21,5.21,0,0,0,3,.8,5.07,5.07,0,0,0,2.8-.7,7,7,0,0,0,2-1.8l3.2,3.3A9.32,9.32,0,0,1,264,121.7Z"/><path class="cls-2" d="M271.3,122V93.4h14.8v4.3h-9.4v7.6h8.7v4h-8.7v8.4h9.9V122Z"/><path class="cls-2" d="M306.2,122l-9.4-20.2h-.1l.1,20.2h-5V93.4h6.4l9.3,20.3h.1V93.4h4.9V122Z"/><path class="cls-2" d="M327.3,97.5V122h-5.5V97.5h-6.2V93.4h17.9v4.1Z"/><path class="cls-2" d="M350.5,122l-5.1-12.2h-3.1V122h-5.4V93.4h9.4a15.18,15.18,0,0,1,3.8.5,7.71,7.71,0,0,1,3,1.5,6.67,6.67,0,0,1,1.9,2.5,8.15,8.15,0,0,1,.7,3.7,8.36,8.36,0,0,1-.5,2.9,7.76,7.76,0,0,1-1.2,2.2,5.52,5.52,0,0,1-1.7,1.4,6.7,6.7,0,0,1-1.8.7l5.9,13.2Zm-.4-20.2a4.14,4.14,0,0,0-.4-2.1,2.85,2.85,0,0,0-1.1-1.3,5.07,5.07,0,0,0-1.5-.7,8.81,8.81,0,0,0-1.7-.2h-3.2v8.8h3.2a5.33,5.33,0,0,0,3.4-1.1A4.24,4.24,0,0,0,350.1,101.8Z"/><path class="cls-2" d="M380.5,116.1a10.56,10.56,0,0,1-1.8,3.5,7.55,7.55,0,0,1-3.2,2.3,11.5,11.5,0,0,1-4.8.8,13.37,13.37,0,0,1-4.8-.8,7.55,7.55,0,0,1-3.2-2.3,9.68,9.68,0,0,1-1.8-3.5,14.24,14.24,0,0,1-.5-4.2V93.4H366v18a22.75,22.75,0,0,0,.2,2.6,7.11,7.11,0,0,0,.7,2.2,4,4,0,0,0,3.9,2,5.36,5.36,0,0,0,2.4-.5,4.31,4.31,0,0,0,1.5-1.5,4.77,4.77,0,0,0,.7-2.2,22.75,22.75,0,0,0,.2-2.6v-18h5.6v18.4A25.75,25.75,0,0,1,380.5,116.1Z"/><path class="cls-2" d="M410,122l.1-22H410l-6.6,22H399l-6.5-22h-.1l.1,22h-5.1V93.4h7.5l6.4,20.9h.2l6.2-20.9h7.9V122Z"/></g></g></g></svg>