<?xml version="1.0" encoding="utf-8"?>
<!-- Generator: Adobe Illustrator 23.0.4, SVG Export Plug-In . SVG Version: 6.00 Build 0)  -->
<svg version="1.1" id="Capa_1" xmlns="http://www.w3.org/2000/svg" xmlns:xlink="http://www.w3.org/1999/xlink" x="0px" y="0px"
	 viewBox="0 0 247.6 247.6" style="enable-background:new 0 0 247.6 247.6;" xml:space="preserve">
<style type="text/css">
	.st0{fill:#FFFFFF;}
</style>
<rect y="0" width="247.6" height="247.6"/>
<g>
	<path class="st0" d="M124.2,49.4c13.6,0,24.7-11.1,24.7-24.7S137.8,0,124.2,0S99.5,11.1,99.5,24.7C99.5,38.3,110.6,49.4,124.2,49.4
		z"/>
	<path class="st0" d="M230.8,106c-5,0-9,4-9,9c0,8.8-4.7,16.5-11.7,20.8c-7.9-40.2-43.4-70.7-85.9-70.7c-14.9,0-29,3.8-41.3,10.4
		L70.2,62.9c-2-2-5.2-2.6-7.8-1.5c-2.6,1.1-4.5,3.6-4.5,6.5v27.4c-5,6-9.3,12.4-12.8,20.4H22.9c-7.9,0-15.1,6.1-15.1,14v37.2
		c0,7.9,7.1,14.8,15.1,14.8h18.5c3.7,10,9.4,20.2,16.4,28.5v30.1c0,3.9,3.5,7.4,7.4,7.4h18.9c3.9,0,6.8-3.5,6.8-7.4v-6.5
		c10,4.2,21.3,6.5,33,6.5c11.7,0,23-2.3,33-6.5v6.5c0,3.9,3.5,7.4,7.4,7.4h18.9c3.9,0,6.7-3.5,6.7-7.4v-30.1
		c13-14.9,21.2-34.2,21.7-55.3c16.4-5.9,28.2-21.5,28.2-39.9C239.8,110,235.8,106,230.8,106z M78.2,141.3c-7.2,0-13-5.8-13-13
		s5.8-13,13-13s13,5.8,13,13C91.2,135.4,85.3,141.3,78.2,141.3z M152.2,92.3c-1,3.1-4,5.1-7.1,5.1c-0.8,0-1.6-0.1-2.4-0.4
		c-11.9-3.9-25-3.9-36.9,0c-3.9,1.3-8.2-0.8-9.5-4.8c-1.3-3.9,0.8-8.2,4.8-9.5c7.5-2.5,15.3-3.7,23.2-3.7c7.9,0,15.7,1.3,23.2,3.7
		C151.3,84.1,153.5,88.3,152.2,92.3z"/>
</g>
</svg>
